# xmcd
#
# Track frame offsets:
#	150
#	20782
#	35655
#	52282
#	71027
#	88365
#	109760
#	125527
#	139570
#	158520
#	174840
#	190802
#	205475
#	226845
#	240965
#
# Disc length: 3447
#
# Revision: 2
# Processed by: cddbd v1.5.1PL0 Copyright (c) Steve Scherf et al.
# Submitted via: CDex 1.50
# Normalized: r1:DSETVAR1
#
DISCID=d00d750f
DTITLE=Various Artist - The Timeless Power Of Soul and Blues
DYEAR=1998
DGENRE=Unknown
TTITLE0=Johnny Adams - The Night is a Hunter
TTITLE1=Solomon Burke - A Change Is Gonna Come
TTITLE2=Paul Kelly - Personally
TTITLE3=Ruth Brown - That Train Don't Stop Here
TTITLE4=Roomful Of Blues - Switchin' The Kitchen
TTITLE5=Sugar Ray - You Better Move On
TTITLE6=Smokin' Joe Kubek - Roll Off The Dice
TTITLE7=Tutu Jones - She's So Fine
TTITLE8=Davell Crawford - Ooh Wee Sugar
TTITLE9=Ann Peebles feat. Mavis Staples - Fill This World With Love
TTITLE10=Otis Clay - That's How It Is
TTITLE11=Little Buster - Ever Since
TTITLE12=Walter "Wolfman" Washington - Mary Ann
TTITLE13=Johnny Nocturne - New Kind Of Mambo
TTITLE14=Andrew "Jr. Boy" Jones - Soul Serenade
EXTD=YEAR: 1998
EXTT0=
EXTT1=
EXTT2=
EXTT3=
EXTT4=
EXTT5=
EXTT6=
EXTT7=
EXTT8=
EXTT9=
EXTT10=
EXTT11=
EXTT12=
EXTT13=
EXTT14=
PLAYORDER=
